<?xml version="1.0" encoding="UTF-8"?>
<svg id="Layer_1" data-name="Layer 1" xmlns="http://www.w3.org/2000/svg" viewBox="0 0 113.47 122.51">
  <defs>
    <style>
      .cls-1 {
        fill: #00abcb;
      }

      .cls-1, .cls-2, .cls-3 {
        stroke-width: 0px;
      }

      .cls-2 {
        fill: none;
      }

      .cls-3 {
        fill: #9f3b81;
      }
    </style>
  </defs>
  <path class="cls-3" d="M17.38.17c4.82-1.18,10.21,3.85,12.02,11.25,1.81,7.4-.63,14.35-5.45,15.53-4.82,1.18-10.21-3.85-12.02-11.25-1.81-7.4.63-14.35,5.45-15.53"/>
  <path class="cls-2" d="M80.01,18.85c4.93-1.63,10.96,3.18,13.46,10.73,2.5,7.56.53,15.01-4.4,16.64-4.93,1.63-10.96-3.17-13.46-10.73-2.5-7.56-.53-15.01,4.4-16.64Z"/>
  <path class="cls-2" d="M81.01,15.57c8.37,0,16.05,4.07,22.11,10.85-3.32-7.16-7.54-13.54-12.4-18.92-7.45-2.7-19.9-3.84-34.72,8.16-.66.59-2.77,2.44-4.9,4.3-5.68,4.48-12.38,9.68-21.59,13.21l-.89-.21c-12.51-1.68-18.98,2.95-18.98,2.95,0,0-2.4,1.31-4.9,4.22C-.41,48.47-.93,60.05,2.81,72.08c1.45,3.81,3.13,7.52,5.09,11.1,1.52,2.8,3.24,5.48,5.12,8.05,3.05,4.19,6.49,8.07,10.3,11.6,2.32,2.15,4.78,4.14,7.34,6,13.49,9.81,26.12,15.59,40.46,12.85,7.12-1.36,13.52-4.52,19.02-9.08-2.91,1.08-5.96,1.66-9.12,1.66-19.53,0-35.36-22.09-35.36-49.35S61.48,15.57,81.01,15.57Z"/>
  <path class="cls-3" d="M37.67,67.24c0-28.9,21.22-52.33,47.4-52.33,4.17,0,8.2.6,12.05,1.71-1.98-2.93-4.12-5.67-6.41-8.19-7.45-2.67-19.9-3.81-34.72,8.1-.66.59-2.77,2.42-4.9,4.27-5.68,4.45-12.38,9.6-21.59,13.1l-.89-.2c-1.29-.17-2.5-.26-3.66-.31-11.04-1.22-15.1,2.57-15.1,2.57,0,0-3.04,1.96-5.42,5.23-5.23,8.42-5.75,20.12-1.95,32.27,1.48,3.85,3.19,7.6,5.18,11.22,1.55,2.82,3.31,5.54,5.21,8.14,3.1,4.23,6.62,8.16,10.49,11.71,3.87,3.56,8.09,6.74,12.57,9.49,4.9,3,10.13,5.46,15.65,7.08,1.22.36,2.5.69,3.8.95,2,.3,3.96.46,5.89.47.5-.03,1-.1,1.49-.17,2.73.09,5.51-.1,8.35-.64,2.88-.55,5.64-1.4,8.28-2.51-23.49-3.11-41.71-25.17-41.71-51.95Z"/>
  <path class="cls-1" d="M80.01,18.85c4.93-1.63,10.96,3.18,13.46,10.73,2.5,7.56.53,15.01-4.4,16.64-4.93,1.63-10.96-3.17-13.46-10.73-2.5-7.56-.53-15.01,4.4-16.64"/>
  <path class="cls-1" d="M111.18,34.59c-.33-1.33-.72-2.62-1.14-3.89-.39-1.17-.82-2.32-1.29-3.43-2.44-5.78-6.03-10.83-11.26-14.94-8.35-6.4-15.96-5.61-15.96-5.61h0c1.75.58,3.33,1.36,4.74,2.26.57.36,1.11.75,1.62,1.15.51.4,1,.81,1.47,1.24.23.21.46.43.68.65,1.1,1.09,2.05,2.22,2.87,3.33.16.22.32.44.47.66.3.44.58.87.84,1.29,1.82,2.93,2.6,5.25,2.6,5.25,0,0,.52,1.26,1.11,3.24.17.57.34,1.19.51,1.86.09.34.17.68.25,1.04.41,1.78.75,3.82.88,5.9.02.42.04.84.05,1.25.03,1.8-.15,3.6-.6,5.28-.35,1.31-.88,2.54-1.62,3.64-.28.41-.58.81-.92,1.18-.04.05-.08.1-.13.15-.28.3-.59.58-.91.85-1.97,1.62-4.77,2.68-8.68,2.84h0c-.72.02-1.43,0-2.14-.04-.01,0-.03,0-.04,0-8.1-.48-15.17-4.57-22.74-7.46-25.05-13.78-52.17-15.04-58.64-.12-.91,2.1-1.49,4.41-1.99,6.68,10.5-11.07,35.86-11.78,54.76.9,5.34,4.07,10.24,9.21,14.55,14.93,0,0,0,0,0,0,7.17,9.52,10.86,20.24,11.04,29.88.16,8.44-2.38,16.05-7.64,21.29-.75.75-1.56,1.45-2.42,2.1-1.11.83-2.27,1.55-3.49,2.17-2.02,1.02-4.19,1.73-6.44,2.16.99.07,1.94.11,2.87.13,5.93-.11,11.62-1.57,16.87-4.16.75-.37,1.49-.76,2.23-1.18,1.47-.83,2.9-1.75,4.29-2.76,1.39-1.01,2.74-2.09,4.04-3.26,2.61-2.34,5.03-4.99,7.25-7.92,1.66-2.19,3.2-4.54,4.61-7.03.94-1.66,1.82-3.37,2.64-5.15,1.23-2.66,2.31-5.44,3.24-8.33.62-1.93,1.17-3.9,1.64-5.91.48-2.02.88-4.07,1.2-6.17s.57-4.22.74-6.39c.17-2.16.25-4.35.25-6.57,0-8.33-.57-16.08-2.29-23.01Z"/>
</svg>