<?xml version="1.0" encoding="UTF-8"?>
<svg id="ALL_Logos" data-name="ALL Logos" xmlns="http://www.w3.org/2000/svg" viewBox="0 0 110 110">
  <defs>
    <style>
      .cls-1 {
        fill: #70cacd;
      }

      .cls-1, .cls-2, .cls-3 {
        stroke-width: 0px;
      }

      .cls-2 {
        fill: #04abcb;
      }

      .cls-3 {
        fill: #9f3a80;
      }
    </style>
  </defs>
  <g>
    <path class="cls-1" d="m31.25,32.99s12.91-1.77,24.28-12.04,19.17-12.5,21.11-12.62c.92-.06,2.87,1.17,4.52,2.62,1.82,1.61,3.3,3.47,3.3,3.47,0,0-8.86-2.12-15.65,5.66s-12.93,25.06-13.08,29.83-1.42,36.79,20.95,39.91c0,0-.18,7.37-6.49,10.52,0,0-18.01-3.42-28.45-20.48s-8.31-21.71-8.38-29.22,6.84-9.75,7.96-9.82-10.06-7.83-10.06-7.83Z"/>
    <ellipse class="cls-1" cx="43.57" cy="14.69" rx="6.87" ry="10.52" transform="translate(-2.24 10.8) rotate(-13.78)"/>
  </g>
  <g>
    <path class="cls-3" d="m69.59,100.11s-4.36,3.86-9.91,5.24c-8.94,2.23-28.09-7.85-35.91-17.74,0,0-9.43-7.91-15.4-26.48s7.15-25.7,7.15-25.7c0,0,5.37-3.84,15.73-2.44l17.82,4.1s-3.74.31-7.76,3.73c0,0-6.06,1.11-6.99,8.15-1.2,9.03.38,17.33,4.87,25.28,6.29,11.15,16.1,19.47,27.7,24.67.9.4,1.79.81,2.7,1.18Z"/>
    <ellipse class="cls-3" cx="12.47" cy="23.45" rx="6.87" ry="10.52" transform="translate(-5.23 3.65) rotate(-13.78)"/>
  </g>
  <g>
    <path class="cls-2" d="m76.64,8.33s11.31-2.53,19.35,9.59,9.43,25.46,8.36,42.15-10.8,31.78-14.95,35.4-11.95,11.67-29.72,9.88c0,0,18.68-4.29,17.69-24.49,0,0-2.54-21.86-21.44-33.49,0,0-6.18-5.19-14.62-6.55,0,0,4.62-5.38,13.96-3.49s17.09,8.28,26.73,8.05,10.13-9.13,10.52-11.47c.61-3.69-.57-7.84-2.18-11.11-.94-1.91-2.17-3.64-3.48-5.31-.76-.97-1.54-1.93-2.34-2.87-1.25-1.48-2.56-2.93-4.11-4.11-1.16-.88-2.47-1.53-3.77-2.18Z"/>
    <ellipse class="cls-2" cx="81.14" cy="32.46" rx="6.87" ry="10.52" transform="translate(-6.09 27.13) rotate(-18.3)"/>
  </g>
</svg>