<svg width="493" height="88" viewBox="0 0 493 88" fill="none" xmlns="http://www.w3.org/2000/svg">
<mask id="mask0_1_333" style="mask-type:luminance" maskUnits="userSpaceOnUse" x="221" y="0" width="65" height="64">
<path d="M221.208 -1.45058e-06H286V63.7604H221.208V-1.45058e-06Z" fill="white"/>
</mask>
<g mask="url(#mask0_1_333)">
<path d="M277.005 55.7865H229.182V7.96354H271.693L279.661 -0.00520978C279.661 -0.00520978 242.469 -0.00520978 229.182 -0.00520978C221.208 -0.00520978 221.208 7.96354 221.208 7.96354C221.208 7.96354 221.208 41.8437 221.208 55.7865C221.208 63.7604 229.182 63.7604 229.182 63.7604C229.182 63.7604 260.901 63.7604 277.005 63.7604C284.979 63.7604 284.979 55.7865 284.979 55.7865V29.224L277.005 37.1927V55.7865Z" fill="#5070A4"/>
</g>
<mask id="mask1_1_333" style="mask-type:luminance" maskUnits="userSpaceOnUse" x="236" y="2" width="66" height="49">
<path d="M236.667 2.66667H301.073V50.6667H236.667V2.66667Z" fill="white"/>
</mask>
<g mask="url(#mask1_1_333)">
<path d="M300.427 7.64062L285.391 2.74479C284.984 2.74479 284.578 2.89583 284.38 3.125C282.573 4.8125 274.25 12.7604 269.635 18.5729C266.229 22.7813 262.62 29.2083 260.813 32.1823C260.51 32.4896 259.807 32.6458 259.307 32.6458C258.906 32.6458 258 31.8802 257.802 31.5729C255.797 29.125 252.391 25 249.177 21.8594C246.771 19.4167 244.26 17.5781 242.057 15.6667C241.755 15.4427 241.453 15.3646 240.953 15.3646C240.25 15.3646 239.547 15.8229 239.547 16.4323L237.042 26.1406C237.042 26.599 237.24 27.0625 237.641 27.3646C239.646 29.0521 245.365 33.7135 247.87 36.6979C252.589 42.125 255.896 46.4844 257.406 48.7813C257.5 49.0052 258.906 50.3906 259.203 50.3906C259.604 50.3906 260.411 49.7708 260.609 49.5469C263.818 45.6458 272.745 32.9479 281.073 24.7656C289.292 16.6615 297.214 11.3073 300.927 8.40625C300.927 8.32812 301.026 8.25 301.026 8.09375C301.026 7.86458 300.729 7.64062 300.427 7.64062Z" fill="#5070A4"/>
</g>
<path d="M321.796 26.0704V32.2787C321.046 35.685 319.421 38.2579 316.921 40.0079C314.421 41.7579 311.629 42.6329 308.546 42.6329C304.681 42.6329 301.39 41.1902 298.671 38.2995C295.947 35.3985 294.588 31.8985 294.588 27.7995C294.588 23.6329 295.921 20.1225 298.588 17.2579C301.254 14.3829 304.572 12.9454 308.546 12.9454C313.213 12.9454 316.9 14.5808 319.609 17.8412L315.338 22.5287C313.806 20.0704 311.676 18.8412 308.942 18.8412C306.926 18.8412 305.202 19.7162 303.775 21.4662C302.359 23.2162 301.65 25.3308 301.65 27.7995C301.65 30.2318 302.359 32.3152 303.775 34.0495C305.202 35.7735 306.926 36.6329 308.942 36.6329C310.609 36.6329 312.056 36.1329 313.296 35.1329C314.53 34.1225 315.15 32.7787 315.15 31.112H308.546V26.0704H321.796Z" fill="#5070A4"/>
<path d="M341.064 13.4662V19.1954H331.189V24.8829H340.647V30.612H331.189V36.3829H341.064V42.112H324.668V13.4662H341.064Z" fill="#5070A4"/>
<path d="M351.33 24.3204V42.112H344.809V13.4662H351.33L362.726 31.237H362.809V13.4662H369.33V42.112H362.809L351.413 24.3204H351.33Z" fill="#5070A4"/>
<path d="M389.889 13.4662V19.1954H380.014V24.8829H389.472V30.612H380.014V36.3829H389.889V42.112H373.493V13.4662H389.889Z" fill="#5070A4"/>
<path d="M393.635 13.4662H403.885C406.635 13.4662 408.874 14.2058 410.614 15.6745C412.348 17.1329 413.218 19.2318 413.218 21.9662C413.218 24.0808 412.687 25.8516 411.635 27.2787C410.593 28.6954 409.161 29.6954 407.343 30.2787L417.218 42.112H408.926L400.155 30.7995V42.112H393.635V13.4662ZM400.155 26.1745H400.926C401.52 26.1745 402.03 26.1693 402.447 26.1537C402.864 26.1277 403.333 26.0443 403.864 25.9037C404.405 25.7683 404.833 25.5704 405.155 25.3204C405.489 25.06 405.765 24.685 405.989 24.1954C406.223 23.711 406.343 23.1224 406.343 22.4245C406.343 21.7318 406.223 21.1433 405.989 20.6537C405.765 20.1693 405.489 19.7995 405.155 19.5495C404.833 19.2891 404.405 19.086 403.864 18.9454C403.333 18.81 402.864 18.7318 402.447 18.7162C402.03 18.6902 401.52 18.6745 400.926 18.6745H400.155V26.1745Z" fill="#5070A4"/>
<path d="M433.04 13.4662L444.624 42.112H437.603L435.478 36.3829H424.582L422.457 42.112H415.436L426.999 13.4662H433.04ZM433.249 30.6537L430.061 22.3204H429.999L426.79 30.6537H433.249Z" fill="#5070A4"/>
<path d="M452.245 13.4662V36.3829H462.12V42.112H445.724V13.4662H452.245Z" fill="#5070A4"/>
<path d="M312.275 56.5035V62.2327H302.4V67.9202H311.859V73.6493H302.4V79.4202H312.275V85.1493H295.879V56.5035H312.275Z" fill="#5070A4"/>
<path d="M322.542 56.5035V79.4202H332.417V85.1493H316.021V56.5035H322.542Z" fill="#5070A4"/>
<path d="M352.037 56.5035V62.2327H342.162V67.9202H351.62V73.6493H342.162V79.4202H352.037V85.1493H335.641V56.5035H352.037Z" fill="#5070A4"/>
<path d="M371.033 79.2535C372.033 79.2535 372.996 79.1025 373.928 78.7952C374.871 78.4931 375.559 78.2014 375.991 77.9202L376.658 77.4827L379.428 83.0243C379.345 83.0973 379.22 83.191 379.053 83.316C378.887 83.4306 378.501 83.6441 377.908 83.9618C377.324 84.2691 376.699 84.54 376.033 84.7743C375.366 84.9983 374.481 85.1962 373.387 85.3785C372.303 85.5712 371.178 85.6702 370.012 85.6702C367.356 85.6702 364.835 85.0191 362.449 83.7118C360.059 82.4098 358.137 80.6077 356.678 78.316C355.22 76.0243 354.491 73.5452 354.491 70.8785C354.491 68.8681 354.918 66.9358 355.783 65.0868C356.642 63.2275 357.783 61.6389 359.199 60.316C360.626 58.9983 362.288 57.9514 364.178 57.1702C366.08 56.3785 368.022 55.9827 370.012 55.9827C371.871 55.9827 373.58 56.2066 375.137 56.6493C376.705 57.0816 377.814 57.5191 378.47 57.9618L379.428 58.6077L376.658 64.1702C376.491 64.0348 376.246 63.8681 375.928 63.6702C375.606 63.4775 374.96 63.2223 373.991 62.8993C373.017 62.566 372.033 62.3993 371.033 62.3993C369.449 62.3993 368.033 62.6598 366.783 63.1702C365.533 63.6702 364.538 64.3368 363.803 65.1702C363.08 66.0035 362.522 66.9098 362.137 67.8785C361.762 68.8368 361.574 69.816 361.574 70.816C361.574 72.9827 362.387 74.9358 364.012 76.6702C365.647 78.3941 367.991 79.2535 371.033 79.2535Z" fill="#5070A4"/>
<path d="M380.119 62.2327V56.5035H400.265V62.2327H393.453V85.1493H386.932V62.2327H380.119Z" fill="#5070A4"/>
<path d="M409.15 56.5035V85.1493H402.629V56.5035H409.15Z" fill="#5070A4"/>
<path d="M412.033 70.816C412.033 66.665 413.439 63.1598 416.262 60.2952C419.095 57.4202 422.502 55.9827 426.491 55.9827C430.491 55.9827 433.892 57.415 436.7 60.2743C439.502 63.1233 440.908 66.6389 440.908 70.816C440.908 74.9983 439.522 78.5191 436.762 81.3785C434.012 84.2431 430.585 85.6702 426.491 85.6702C422.293 85.6702 418.835 84.2535 416.116 81.4202C413.392 78.5868 412.033 75.0556 412.033 70.816ZM419.095 70.816C419.095 72.316 419.325 73.6858 419.783 74.9202C420.241 76.1598 421.043 77.2066 422.2 78.066C423.366 78.9306 424.793 79.3577 426.491 79.3577C428.918 79.3577 430.752 78.5243 431.991 76.8577C433.226 75.191 433.845 73.1806 433.845 70.816C433.845 68.4723 433.21 66.4566 431.95 64.7743C430.7 63.0973 428.877 62.2535 426.491 62.2535C424.127 62.2535 422.304 63.0973 421.012 64.7743C419.731 66.4566 419.095 68.4723 419.095 70.816Z" fill="#5070A4"/>
<path d="M450.301 67.3577V85.1493H443.78V56.5035H450.301L461.696 74.2743H461.78V56.5035H468.301V85.1493H461.78L450.384 67.3577H450.301Z" fill="#5070A4"/>
<path d="M483.026 55.9827C484.568 55.9827 486.078 56.2118 487.568 56.6702C489.052 57.1181 490.157 57.5556 490.881 57.9827L491.922 58.691L489.276 63.8993C489.068 63.7639 488.776 63.5816 488.401 63.3577C488.037 63.1389 487.344 62.8473 486.318 62.4827C485.302 62.1077 484.349 61.9202 483.464 61.9202C482.381 61.9202 481.537 62.1493 480.943 62.6077C480.36 63.066 480.068 63.691 480.068 64.4827C480.068 64.8733 480.203 65.2431 480.485 65.5868C480.761 65.9202 481.235 66.2848 481.901 66.6702C482.578 67.0452 483.172 67.3525 483.672 67.5868C484.183 67.8108 484.974 68.1598 486.047 68.6285C487.891 69.4098 489.469 70.4775 490.776 71.8368C492.094 73.1858 492.756 74.7223 492.756 76.441C492.756 78.0816 492.453 79.5191 491.86 80.7535C491.276 81.9775 490.464 82.9358 489.422 83.6285C488.391 84.3264 487.256 84.8368 486.006 85.1702C484.756 85.5035 483.401 85.6702 481.943 85.6702C480.693 85.6702 479.464 85.5348 478.256 85.2743C477.058 85.0243 476.052 84.7118 475.235 84.3368C474.427 83.9514 473.698 83.5764 473.047 83.2118C472.407 82.8368 471.933 82.5243 471.631 82.2743L471.172 81.8785L474.443 76.3993C474.719 76.6389 475.099 76.9358 475.589 77.2952C476.073 77.6441 476.933 78.1233 478.172 78.7327C479.407 79.3316 480.506 79.6285 481.464 79.6285C484.214 79.6285 485.589 78.691 485.589 76.816C485.589 76.4306 485.49 76.066 485.297 75.7327C485.099 75.3889 484.756 75.0452 484.256 74.7118C483.756 74.3785 483.308 74.1181 482.922 73.9202C482.547 73.7275 481.922 73.4306 481.047 73.0243C480.183 72.6077 479.547 72.2952 479.131 72.0868C477.391 71.2431 476.047 70.1702 475.089 68.8785C474.141 67.5868 473.672 66.2066 473.672 64.7327C473.672 62.165 474.62 60.066 476.526 58.441C478.427 56.8056 480.594 55.9827 483.026 55.9827Z" fill="#5070A4"/>
<path d="M227.342 73.6394C226.842 73.6394 226.363 73.8894 225.905 74.3894C225.446 74.879 225.113 75.3633 224.905 75.8477L224.592 76.5769L221.634 75.1602C221.676 75.0352 221.738 74.879 221.821 74.681C221.915 74.4727 222.123 74.1133 222.446 73.5977C222.764 73.0717 223.118 72.6133 223.509 72.2227C223.91 71.8217 224.452 71.4623 225.134 71.1394C225.827 70.806 226.561 70.6394 227.342 70.6394C228.353 70.6394 229.243 70.7748 230.009 71.0352C230.769 71.2852 231.353 71.6081 231.759 71.9935C232.176 72.3685 232.509 72.8217 232.759 73.3477C233.019 73.8633 233.186 74.3373 233.259 74.7644C233.327 75.1967 233.363 75.6394 233.363 76.0977C233.363 76.78 233.176 77.4935 232.801 78.2435C232.426 78.9831 231.967 79.6394 231.426 80.2227C230.894 80.806 230.363 81.3425 229.821 81.8269C229.29 82.3008 228.842 82.6706 228.467 82.931L227.905 83.3269H233.655V86.431H221.571V85.556C221.78 85.379 222.061 85.1342 222.426 84.8269C222.785 84.5248 223.426 83.9415 224.342 83.0769C225.259 82.2019 226.061 81.3894 226.759 80.6394C227.467 79.879 228.103 79.0665 228.676 78.2019C229.259 77.3425 229.551 76.6394 229.551 76.0977C229.551 75.8894 229.53 75.681 229.488 75.4727C229.446 75.254 229.363 74.9883 229.238 74.681C229.113 74.379 228.884 74.129 228.551 73.931C228.228 73.7383 227.827 73.6394 227.342 73.6394Z" fill="#5070A4"/>
<path d="M238.593 78.681C238.593 76.129 239.197 74.1498 240.405 72.7435C241.624 71.3425 243.124 70.6394 244.905 70.6394C246.681 70.6394 248.176 71.3425 249.384 72.7435C250.593 74.1498 251.197 76.129 251.197 78.681C251.197 80.0873 251.03 81.3165 250.697 82.3685C250.364 83.4102 249.895 84.2435 249.301 84.8685C248.702 85.4831 248.035 85.9467 247.301 86.2644C246.577 86.5665 245.78 86.7227 244.905 86.7227C244.041 86.7227 243.244 86.5665 242.509 86.2644C241.785 85.9467 241.119 85.4831 240.509 84.8685C239.91 84.2435 239.437 83.4102 239.093 82.3685C238.759 81.3165 238.593 80.0873 238.593 78.681ZM242.176 78.681C242.176 80.3373 242.41 81.5717 242.884 82.3894C243.353 83.2123 244.03 83.6185 244.905 83.6185C245.78 83.6185 246.452 83.2123 246.926 82.3894C247.395 81.5717 247.634 80.3373 247.634 78.681C247.634 77.129 247.39 75.9206 246.905 75.056C246.431 74.181 245.765 73.7435 244.905 73.7435C244.056 73.7435 243.39 74.181 242.905 75.056C242.416 75.931 242.176 77.1394 242.176 78.681Z" fill="#5070A4"/>
<path d="M261.938 73.6394C261.438 73.6394 260.959 73.8894 260.501 74.3894C260.043 74.879 259.709 75.3633 259.501 75.8477L259.188 76.5769L256.23 75.1602C256.272 75.0352 256.334 74.879 256.418 74.681C256.511 74.4727 256.72 74.1133 257.043 73.5977C257.36 73.0717 257.714 72.6133 258.105 72.2227C258.506 71.8217 259.048 71.4623 259.73 71.1394C260.423 70.806 261.157 70.6394 261.938 70.6394C262.949 70.6394 263.839 70.7748 264.605 71.0352C265.365 71.2852 265.949 71.6081 266.355 71.9935C266.772 72.3685 267.105 72.8217 267.355 73.3477C267.615 73.8633 267.782 74.3373 267.855 74.7644C267.923 75.1967 267.959 75.6394 267.959 76.0977C267.959 76.78 267.772 77.4935 267.397 78.2435C267.022 78.9831 266.563 79.6394 266.022 80.2227C265.49 80.806 264.959 81.3425 264.418 81.8269C263.886 82.3008 263.438 82.6706 263.063 82.931L262.501 83.3269H268.251V86.431H256.168V85.556C256.376 85.379 256.657 85.1342 257.022 84.8269C257.381 84.5248 258.022 83.9415 258.938 83.0769C259.855 82.2019 260.657 81.3894 261.355 80.6394C262.063 79.879 262.699 79.0665 263.272 78.2019C263.855 77.3425 264.147 76.6394 264.147 76.0977C264.147 75.8894 264.126 75.681 264.084 75.4727C264.043 75.254 263.959 74.9883 263.834 74.681C263.709 74.379 263.48 74.129 263.147 73.931C262.824 73.7383 262.423 73.6394 261.938 73.6394Z" fill="#5070A4"/>
<path d="M283.126 80.0561H284.939V83.1602H283.126V86.4311H279.835V83.1602H272.189V82.1186L279.647 70.9311H283.126V80.0561ZM279.835 75.6394H279.793L277.022 80.0561H279.835V75.6394Z" fill="#5070A4"/>
<path d="M27.807 70.7998V77.029C27.0674 80.4457 25.4424 83.029 22.932 84.779C20.432 86.529 17.6403 87.404 14.557 87.404C10.682 87.404 7.37467 85.9613 4.64029 83.0707C1.91634 80.1696 0.556961 76.6644 0.556961 72.5498C0.556961 68.3727 1.89029 64.8415 4.55696 61.9665C7.23404 59.0915 10.5674 57.654 14.557 57.654C19.208 57.654 22.8955 59.2946 25.6195 62.5707L21.3278 67.2582C19.7965 64.7998 17.6663 63.5707 14.932 63.5707C12.9163 63.5707 11.1924 64.4457 9.76529 66.1957C8.333 67.9457 7.61946 70.0654 7.61946 72.5498C7.61946 74.9821 8.333 77.0654 9.76529 78.7998C11.1924 80.5238 12.9163 81.3832 14.932 81.3832C16.5986 81.3832 18.0465 80.8832 19.2861 79.8832C20.5361 78.8727 21.1611 77.529 21.1611 75.8623H14.557V70.7998H27.807Z" fill="#5070A4"/>
<path d="M34.5659 52.9248L41.6284 46.7998L44.7951 50.7998L36.5242 55.6123L34.5659 52.9248ZM47.0867 58.1748V63.9248H37.2117V69.6332H46.6701V75.3623H37.2117V81.1332H47.0867V86.8832H30.6701V58.1748H47.0867Z" fill="#5070A4"/>
<path d="M57.3763 69.0706V86.8831H50.8346V58.1748H57.3763L68.793 75.9873H68.8555V58.1748H75.3971V86.8831H68.8555L57.4388 69.0706H57.3763Z" fill="#5070A4"/>
<path d="M83.4476 52.9248L90.5101 46.7998L93.6768 50.7998L85.4059 55.6123L83.4476 52.9248ZM95.9684 58.1748V63.9248H86.0934V69.6332H95.5518V75.3623H86.0934V81.1332H95.9684V86.8832H79.5518V58.1748H95.9684Z" fill="#5070A4"/>
<path d="M99.7163 58.1748H109.987C112.748 58.1748 114.998 58.9144 116.737 60.3831C118.472 61.8571 119.341 63.9613 119.341 66.6956C119.341 68.8102 118.81 70.5811 117.758 72.0081C116.701 73.4404 115.268 74.4456 113.466 75.029L123.341 86.8831H115.029L106.258 75.5498V86.8831H99.7163V58.1748ZM106.258 70.904H107.029C107.623 70.904 108.133 70.8988 108.55 70.8831C108.966 70.8571 109.435 70.7738 109.966 70.6331C110.508 70.4977 110.935 70.2998 111.258 70.0498C111.591 69.7894 111.867 69.4144 112.091 68.9248C112.326 68.4404 112.445 67.8519 112.445 67.154C112.445 66.4613 112.326 65.8727 112.091 65.3831C111.867 64.8988 111.591 64.529 111.258 64.279C110.935 64.0186 110.508 63.8154 109.966 63.6748C109.435 63.5394 108.966 63.4613 108.55 63.4456C108.133 63.4196 107.623 63.404 107.029 63.404H106.258V70.904Z" fill="#5070A4"/>
<path d="M139.192 58.1748L150.776 86.8831H143.755L141.63 81.1331H130.692L128.588 86.8831H121.547L133.13 58.1748H139.192ZM139.401 75.404L136.192 67.0498H136.13L132.922 75.404H139.401Z" fill="#5070A4"/>
<path d="M158.408 58.1748V81.1331H168.283V86.8831H151.866V58.1748H158.408Z" fill="#5070A4"/>
<path d="M187.926 58.1748V63.9248H178.051V69.6331H187.509V75.3623H178.051V81.1331H187.926V86.8831H171.509V58.1748H187.926Z" fill="#5070A4"/>
<path d="M202.257 57.654C203.809 57.654 205.33 57.8832 206.82 58.3415C208.304 58.7894 209.403 59.2321 210.111 59.6748L211.153 60.3623L208.507 65.5915C208.299 65.4561 208.007 65.2738 207.632 65.0498C207.267 64.8311 206.575 64.5394 205.549 64.1748C204.533 63.7998 203.59 63.6123 202.715 63.6123C201.616 63.6123 200.767 63.8519 200.174 64.3207C199.59 64.779 199.299 65.3988 199.299 66.1748C199.299 66.5811 199.434 66.9457 199.715 67.279C199.991 67.6123 200.465 67.9769 201.132 68.3623C201.809 68.7373 202.403 69.0446 202.903 69.279C203.413 69.5186 204.205 69.8623 205.278 70.3207C207.137 71.1123 208.721 72.1904 210.028 73.5498C211.33 74.8988 211.986 76.4352 211.986 78.154C211.986 79.7946 211.684 81.2321 211.09 82.4665C210.507 83.6904 209.7 84.654 208.674 85.3623C207.642 86.0602 206.497 86.5707 205.236 86.904C203.986 87.2373 202.632 87.404 201.174 87.404C199.924 87.404 198.695 87.2686 197.486 87.0082C196.278 86.7582 195.262 86.4457 194.445 86.0707C193.637 85.6852 192.908 85.3102 192.257 84.9457C191.616 84.5707 191.142 84.2529 190.84 83.9873L190.382 83.6123L193.653 78.1123C193.929 78.3519 194.309 78.6488 194.799 79.0082C195.299 79.3727 196.163 79.8519 197.403 80.4457C198.637 81.0446 199.736 81.3415 200.695 81.3415C203.445 81.3415 204.82 80.404 204.82 78.529C204.82 78.1436 204.721 77.779 204.528 77.4457C204.33 77.1019 203.986 76.7582 203.486 76.4248C202.986 76.0915 202.538 75.8311 202.153 75.6332C201.778 75.4404 201.153 75.1436 200.278 74.7373C199.413 74.3207 198.778 74.0082 198.361 73.7998C196.622 72.9404 195.278 71.8727 194.32 70.5915C193.372 69.2998 192.903 67.9144 192.903 66.4248C192.903 63.8571 193.851 61.7529 195.757 60.1123C197.658 58.4769 199.825 57.654 202.257 57.654Z" fill="#5070A4"/>
<path d="M19.2816 10.8091L26.3232 4.70496L29.4899 8.68413L21.2191 13.4758L19.2816 10.8091ZM31.7816 16.0591V21.7883H21.9066V27.4758H31.3649V33.205H21.9066V38.9758H31.7816V44.705H15.3857V16.0591H31.7816Z" fill="#5070A4"/>
<path d="M42.0427 16.0591V38.9758H51.9177V44.705H35.5219V16.0591H42.0427Z" fill="#5070A4"/>
<path d="M71.5331 16.0591V21.7883H61.6581V27.4758H71.1164V33.205H61.6581V38.9758H71.5331V44.705H55.1372V16.0591H71.5331Z" fill="#5070A4"/>
<path d="M90.5234 38.8091C91.5234 38.8091 92.4869 38.6581 93.4192 38.3508C94.3619 38.0487 95.0494 37.757 95.4817 37.4758L96.1484 37.0383L98.9192 42.58C98.8359 42.6529 98.7109 42.7466 98.5442 42.8716C98.3776 42.9862 97.9921 43.1998 97.3984 43.5175C96.8151 43.8248 96.1901 44.0956 95.5234 44.33C94.8567 44.5539 93.9713 44.7518 92.8776 44.9341C91.7942 45.1268 90.6692 45.2258 89.5026 45.2258C86.8463 45.2258 84.3255 44.5748 81.9401 43.2675C79.5494 41.9654 77.6276 40.1633 76.1692 37.8716C74.7109 35.58 73.9817 33.1008 73.9817 30.4341C73.9817 28.4237 74.4088 26.4914 75.2734 24.6425C76.1328 22.7831 77.2734 21.1945 78.6901 19.8716C80.1171 18.5539 81.7786 17.507 83.6692 16.7258C85.5703 15.9341 87.513 15.5383 89.5026 15.5383C91.3619 15.5383 93.0703 15.7623 94.6276 16.205C96.1953 16.6373 97.3046 17.0748 97.9609 17.5175L98.9192 18.1633L96.1484 23.7258C95.9817 23.5904 95.7369 23.4237 95.4192 23.2258C95.0963 23.0331 94.4505 22.7779 93.4817 22.455C92.5078 22.1216 91.5234 21.955 90.5234 21.955C88.9401 21.955 87.5234 22.2154 86.2734 22.7258C85.0234 23.2258 84.0286 23.8925 83.2942 24.7258C82.5703 25.5591 82.013 26.4654 81.6276 27.4341C81.2526 28.3925 81.0651 29.3716 81.0651 30.3716C81.0651 32.5383 81.8776 34.4914 83.5026 36.2258C85.138 37.9498 87.4817 38.8091 90.5234 38.8091Z" fill="#5070A4"/>
<path d="M99.6032 21.7883V16.0591H119.749V21.7883H112.936V44.705H106.416V21.7883H99.6032Z" fill="#5070A4"/>
<path d="M128.628 16.0591V44.705H122.107V16.0591H128.628Z" fill="#5070A4"/>
<path d="M131.509 30.3716C131.509 26.2206 132.915 22.7154 135.738 19.8508C138.571 16.9758 141.977 15.5383 145.967 15.5383C149.967 15.5383 153.368 16.9706 156.175 19.83C158.977 22.6789 160.384 26.1945 160.384 30.3716C160.384 34.5539 158.998 38.0748 156.238 40.9341C153.488 43.7987 150.061 45.2258 145.967 45.2258C141.769 45.2258 138.311 43.8091 135.592 40.9758C132.868 38.1425 131.509 34.6112 131.509 30.3716ZM138.571 30.3716C138.571 31.8716 138.8 33.2414 139.259 34.4758C139.717 35.7154 140.519 36.7623 141.675 37.6216C142.842 38.4862 144.269 38.9133 145.967 38.9133C148.394 38.9133 150.227 38.08 151.467 36.4133C152.701 34.7466 153.321 32.7362 153.321 30.3716C153.321 28.0279 152.686 26.0123 151.425 24.33C150.175 22.6529 148.352 21.8091 145.967 21.8091C143.602 21.8091 141.779 22.6529 140.488 24.33C139.207 26.0123 138.571 28.0279 138.571 30.3716Z" fill="#5070A4"/>
<path d="M169.768 26.9133V44.705H163.247V16.0591H169.768L181.164 33.83H181.247V16.0591H187.768V44.705H181.247L169.852 26.9133H169.768Z" fill="#5070A4"/>
<path d="M202.487 15.5383C204.028 15.5383 205.539 15.7675 207.028 16.2258C208.513 16.6737 209.617 17.1112 210.341 17.5383L211.382 18.2466L208.737 23.455C208.528 23.3195 208.237 23.1373 207.862 22.9133C207.497 22.6945 206.804 22.4029 205.778 22.0383C204.763 21.6633 203.81 21.4758 202.924 21.4758C201.841 21.4758 200.997 21.705 200.403 22.1633C199.82 22.6216 199.528 23.2466 199.528 24.0383C199.528 24.4289 199.664 24.7987 199.945 25.1425C200.221 25.4758 200.695 25.8404 201.362 26.2258C202.039 26.6008 202.632 26.9081 203.132 27.1425C203.643 27.3664 204.435 27.7154 205.507 28.1841C207.351 28.9654 208.929 30.0331 210.237 31.3925C211.554 32.7414 212.216 34.2779 212.216 35.9966C212.216 37.6373 211.914 39.0748 211.32 40.3091C210.737 41.5331 209.924 42.4914 208.882 43.1841C207.851 43.882 206.716 44.3925 205.466 44.7258C204.216 45.0591 202.862 45.2258 201.403 45.2258C200.153 45.2258 198.924 45.0904 197.716 44.83C196.518 44.58 195.513 44.2675 194.695 43.8925C193.888 43.507 193.159 43.132 192.507 42.7675C191.867 42.3925 191.393 42.08 191.091 41.83L190.632 41.4341L193.903 35.955C194.179 36.1945 194.56 36.4914 195.049 36.8508C195.534 37.1998 196.393 37.6789 197.632 38.2883C198.867 38.8873 199.966 39.1841 200.924 39.1841C203.674 39.1841 205.049 38.2466 205.049 36.3716C205.049 35.9862 204.95 35.6216 204.757 35.2883C204.56 34.9445 204.216 34.6008 203.716 34.2675C203.216 33.9341 202.768 33.6737 202.382 33.4758C202.007 33.2831 201.382 32.9862 200.507 32.58C199.643 32.1633 199.007 31.8508 198.591 31.6425C196.851 30.7987 195.507 29.7258 194.549 28.4341C193.601 27.1425 193.132 25.7623 193.132 24.2883C193.132 21.7206 194.08 19.6216 195.987 17.9966C197.888 16.3612 200.054 15.5383 202.487 15.5383Z" fill="#5070A4"/>
</svg>
