<svg xmlns="http://www.w3.org/2000/svg" xmlns:xlink="http://www.w3.org/1999/xlink" width="1406" zoomAndPan="magnify" viewBox="0 0 1054.5 857.999991" height="1144" preserveAspectRatio="xMidYMid meet" version="1.0"><defs><g/><clipPath id="0f1df655b6"><path d="M 0 0.203125 L 1054 0.203125 L 1054 857.796875 L 0 857.796875 Z M 0 0.203125 " clip-rule="nonzero"/></clipPath></defs><g clip-path="url(#0f1df655b6)"><path fill="#ffffff" d="M 0 0.203125 L 1054 0.203125 L 1054 857.796875 L 0 857.796875 Z M 0 0.203125 " fill-opacity="1" fill-rule="nonzero"/></g><g fill="#9f3a80" fill-opacity="1"><g transform="translate(162.784656, 645.506091)"><g/></g></g><g fill="#9f3a80" fill-opacity="1"><g transform="translate(193.309818, 645.506091)"><g><path d="M 6.703125 -92.15625 L 40.328125 -92.15625 C 49.710938 -92.15625 57.304688 -89.734375 63.109375 -84.890625 C 68.921875 -80.054688 71.828125 -73.019531 71.828125 -63.78125 C 71.828125 -54.550781 68.882812 -47.3125 63 -42.0625 C 57.113281 -36.8125 49.554688 -34.1875 40.328125 -34.1875 L 27.703125 -34.1875 L 27.703125 0 L 6.703125 0 Z M 27.703125 -50.9375 L 33.625 -50.9375 C 38.3125 -50.9375 42.160156 -51.882812 45.171875 -53.78125 C 48.191406 -55.6875 49.703125 -58.796875 49.703125 -63.109375 C 49.703125 -67.503906 48.191406 -70.648438 45.171875 -72.546875 C 42.160156 -74.453125 38.3125 -75.40625 33.625 -75.40625 L 27.703125 -75.40625 Z M 27.703125 -50.9375 "/></g></g></g><g fill="#9f3a80" fill-opacity="1"><g transform="translate(267.667866, 645.506091)"><g><path d="M 53.5 -92.15625 L 90.703125 0 L 68.140625 0 L 61.328125 -18.4375 L 26.25 -18.4375 L 19.4375 0 L -3.125 0 L 34.0625 -92.15625 Z M 54.171875 -36.859375 L 43.90625 -63.671875 L 43.671875 -63.671875 L 33.40625 -36.859375 Z M 54.171875 -36.859375 "/></g></g></g><g fill="#9f3a80" fill-opacity="1"><g transform="translate(355.20048, 645.506091)"><g><path d="M 6.703125 -92.15625 L 39.65625 -92.15625 C 48.519531 -92.15625 55.742188 -89.789062 61.328125 -85.0625 C 66.910156 -80.332031 69.703125 -73.570312 69.703125 -64.78125 C 69.703125 -58.007812 68.003906 -52.332031 64.609375 -47.75 C 61.222656 -43.175781 56.628906 -39.957031 50.828125 -38.09375 L 82.546875 0 L 55.859375 0 L 27.703125 -36.421875 L 27.703125 0 L 6.703125 0 Z M 27.703125 -51.265625 L 30.15625 -51.265625 C 32.09375 -51.265625 33.726562 -51.300781 35.0625 -51.375 C 36.40625 -51.457031 37.929688 -51.71875 39.640625 -52.15625 C 41.359375 -52.601562 42.738281 -53.238281 43.78125 -54.0625 C 44.820312 -54.882812 45.710938 -56.078125 46.453125 -57.640625 C 47.203125 -59.203125 47.578125 -61.097656 47.578125 -63.328125 C 47.578125 -65.566406 47.203125 -67.46875 46.453125 -69.03125 C 45.710938 -70.59375 44.820312 -71.78125 43.78125 -72.59375 C 42.738281 -73.414062 41.359375 -74.050781 39.640625 -74.5 C 37.929688 -74.945312 36.40625 -75.207031 35.0625 -75.28125 C 33.726562 -75.363281 32.09375 -75.40625 30.15625 -75.40625 L 27.703125 -75.40625 Z M 27.703125 -51.265625 "/></g></g></g><g fill="#9f3a80" fill-opacity="1"><g transform="translate(435.141008, 645.506091)"><g><path d="M 0.890625 -73.71875 L 0.890625 -92.15625 L 65.6875 -92.15625 L 65.6875 -73.71875 L 43.78125 -73.71875 L 43.78125 0 L 22.78125 0 L 22.78125 -73.71875 Z M 0.890625 -73.71875 "/></g></g></g><g fill="#9f3a80" fill-opacity="1"><g transform="translate(501.683686, 645.506091)"><g><path d="M 27.703125 -92.15625 L 27.703125 0 L 6.703125 0 L 6.703125 -92.15625 Z M 27.703125 -92.15625 "/></g></g></g><g fill="#9f3a80" fill-opacity="1"><g transform="translate(536.071528, 645.506091)"><g><path d="M 59.421875 -92.15625 L 59.421875 -73.71875 L 27.703125 -73.71875 L 27.703125 -55.40625 L 58.078125 -55.40625 L 58.078125 -36.96875 L 27.703125 -36.96875 L 27.703125 -18.4375 L 59.421875 -18.4375 L 59.421875 0 L 6.703125 0 L 6.703125 -92.15625 Z M 59.421875 -92.15625 "/></g></g></g><g fill="#9f3a80" fill-opacity="1"><g transform="translate(600.827828, 645.506091)"><g><path d="M 27.703125 -92.15625 L 27.703125 -18.4375 L 59.421875 -18.4375 L 59.421875 0 L 6.703125 0 L 6.703125 -92.15625 Z M 27.703125 -92.15625 "/></g></g></g><g fill="#9f3a80" fill-opacity="1"><g transform="translate(663.909388, 645.506091)"><g><path d="M 27.703125 -92.15625 L 27.703125 -18.4375 L 59.421875 -18.4375 L 59.421875 0 L 6.703125 0 L 6.703125 -92.15625 Z M 27.703125 -92.15625 "/></g></g></g><g fill="#9f3a80" fill-opacity="1"><g transform="translate(726.990949, 645.506091)"><g><path d="M 59.421875 -92.15625 L 59.421875 -73.71875 L 27.703125 -73.71875 L 27.703125 -55.40625 L 58.078125 -55.40625 L 58.078125 -36.96875 L 27.703125 -36.96875 L 27.703125 -18.4375 L 59.421875 -18.4375 L 59.421875 0 L 6.703125 0 L 6.703125 -92.15625 Z M 59.421875 -92.15625 "/></g></g></g><g fill="#9f3a80" fill-opacity="1"><g transform="translate(791.747249, 645.506091)"><g><path d="M 40.65625 -93.828125 C 45.644531 -93.828125 50.519531 -93.097656 55.28125 -91.640625 C 60.050781 -90.191406 63.59375 -88.765625 65.90625 -87.359375 L 69.25 -85.125 L 60.765625 -68.359375 C 60.097656 -68.804688 59.164062 -69.382812 57.96875 -70.09375 C 56.78125 -70.800781 54.546875 -71.75 51.265625 -72.9375 C 47.992188 -74.132812 44.941406 -74.734375 42.109375 -74.734375 C 38.609375 -74.734375 35.910156 -73.988281 34.015625 -72.5 C 32.117188 -71.007812 31.171875 -69 31.171875 -66.46875 C 31.171875 -65.195312 31.613281 -64.019531 32.5 -62.9375 C 33.394531 -61.863281 34.921875 -60.710938 37.078125 -59.484375 C 39.242188 -58.253906 41.144531 -57.265625 42.78125 -56.515625 C 44.414062 -55.773438 46.945312 -54.660156 50.375 -53.171875 C 56.332031 -50.640625 61.414062 -47.191406 65.625 -42.828125 C 69.832031 -38.472656 71.9375 -33.539062 71.9375 -28.03125 C 71.9375 -22.75 70.984375 -18.132812 69.078125 -14.1875 C 67.179688 -10.238281 64.578125 -7.144531 61.265625 -4.90625 C 57.953125 -2.675781 54.285156 -1.023438 50.265625 0.046875 C 46.242188 1.128906 41.890625 1.671875 37.203125 1.671875 C 33.179688 1.671875 29.234375 1.257812 25.359375 0.4375 C 21.484375 -0.375 18.242188 -1.394531 15.640625 -2.625 C 13.035156 -3.851562 10.6875 -5.0625 8.59375 -6.25 C 6.507812 -7.445312 4.984375 -8.453125 4.015625 -9.265625 L 2.5625 -10.5 L 13.0625 -28.15625 C 13.957031 -27.40625 15.1875 -26.453125 16.75 -25.296875 C 18.3125 -24.140625 21.082031 -22.59375 25.0625 -20.65625 C 29.050781 -18.726562 32.578125 -17.765625 35.640625 -17.765625 C 44.492188 -17.765625 48.921875 -20.78125 48.921875 -26.8125 C 48.921875 -28.070312 48.601562 -29.242188 47.96875 -30.328125 C 47.34375 -31.410156 46.226562 -32.488281 44.625 -33.5625 C 43.019531 -34.644531 41.601562 -35.5 40.375 -36.125 C 39.144531 -36.757812 37.132812 -37.726562 34.34375 -39.03125 C 31.550781 -40.34375 29.488281 -41.332031 28.15625 -42 C 22.5625 -44.757812 18.238281 -48.203125 15.1875 -52.328125 C 12.132812 -56.460938 10.609375 -60.914062 10.609375 -65.6875 C 10.609375 -73.945312 13.660156 -80.703125 19.765625 -85.953125 C 25.878906 -91.203125 32.84375 -93.828125 40.65625 -93.828125 Z M 40.65625 -93.828125 "/></g></g></g><g fill="#9f3a80" fill-opacity="1"><g transform="translate(191.529581, 390.206673)"><g><path d="M 10.3125 -36.203125 C 16.300781 -40.960938 19.03125 -43.164062 18.5 -42.8125 C 35.769531 -57.082031 49.378906 -68.796875 59.328125 -77.953125 C 69.285156 -87.117188 77.695312 -96.722656 84.5625 -106.765625 C 91.4375 -116.804688 94.875 -126.585938 94.875 -136.109375 C 94.875 -143.328125 93.195312 -148.960938 89.84375 -153.015625 C 86.5 -157.066406 81.484375 -159.09375 74.796875 -159.09375 C 68.097656 -159.09375 62.851562 -156.582031 59.0625 -151.5625 C 55.28125 -146.539062 53.390625 -139.453125 53.390625 -130.296875 L 9.78125 -130.296875 C 10.132812 -145.265625 13.347656 -157.769531 19.421875 -167.8125 C 25.503906 -177.851562 33.519531 -185.253906 43.46875 -190.015625 C 53.425781 -194.773438 64.484375 -197.15625 76.640625 -197.15625 C 97.609375 -197.15625 113.421875 -191.78125 124.078125 -181.03125 C 134.734375 -170.28125 140.0625 -156.273438 140.0625 -139.015625 C 140.0625 -120.160156 133.628906 -102.671875 120.765625 -86.546875 C 107.910156 -70.429688 91.53125 -54.707031 71.625 -39.375 L 142.96875 -39.375 L 142.96875 -2.640625 L 10.3125 -2.640625 Z M 10.3125 -36.203125 "/></g></g></g><g fill="#9f3a80" fill-opacity="1"><g transform="translate(348.230177, 390.206673)"><g><path d="M 11.890625 -99.109375 C 11.890625 -129.410156 17.75 -153.28125 29.46875 -170.71875 C 41.1875 -188.164062 60.082031 -196.890625 86.15625 -196.890625 C 112.226562 -196.890625 131.125 -188.164062 142.84375 -170.71875 C 154.5625 -153.28125 160.421875 -129.410156 160.421875 -99.109375 C 160.421875 -68.453125 154.5625 -44.398438 142.84375 -26.953125 C 131.125 -9.515625 112.226562 -0.796875 86.15625 -0.796875 C 60.082031 -0.796875 41.1875 -9.515625 29.46875 -26.953125 C 17.75 -44.398438 11.890625 -68.453125 11.890625 -99.109375 Z M 116.015625 -99.109375 C 116.015625 -116.898438 114.078125 -130.597656 110.203125 -140.203125 C 106.328125 -149.804688 98.3125 -154.609375 86.15625 -154.609375 C 74 -154.609375 65.984375 -149.804688 62.109375 -140.203125 C 58.234375 -130.597656 56.296875 -116.898438 56.296875 -99.109375 C 56.296875 -87.128906 57 -77.21875 58.40625 -69.375 C 59.8125 -61.53125 62.671875 -55.1875 66.984375 -50.34375 C 71.304688 -45.5 77.695312 -43.078125 86.15625 -43.078125 C 94.613281 -43.078125 101 -45.5 105.3125 -50.34375 C 109.632812 -55.1875 112.5 -61.53125 113.90625 -69.375 C 115.3125 -77.21875 116.015625 -87.128906 116.015625 -99.109375 Z M 116.015625 -99.109375 "/></g></g></g><g fill="#9f3a80" fill-opacity="1"><g transform="translate(526.334914, 390.206673)"><g><path d="M 10.3125 -36.203125 C 16.300781 -40.960938 19.03125 -43.164062 18.5 -42.8125 C 35.769531 -57.082031 49.378906 -68.796875 59.328125 -77.953125 C 69.285156 -87.117188 77.695312 -96.722656 84.5625 -106.765625 C 91.4375 -116.804688 94.875 -126.585938 94.875 -136.109375 C 94.875 -143.328125 93.195312 -148.960938 89.84375 -153.015625 C 86.5 -157.066406 81.484375 -159.09375 74.796875 -159.09375 C 68.097656 -159.09375 62.851562 -156.582031 59.0625 -151.5625 C 55.28125 -146.539062 53.390625 -139.453125 53.390625 -130.296875 L 9.78125 -130.296875 C 10.132812 -145.265625 13.347656 -157.769531 19.421875 -167.8125 C 25.503906 -177.851562 33.519531 -185.253906 43.46875 -190.015625 C 53.425781 -194.773438 64.484375 -197.15625 76.640625 -197.15625 C 97.609375 -197.15625 113.421875 -191.78125 124.078125 -181.03125 C 134.734375 -170.28125 140.0625 -156.273438 140.0625 -139.015625 C 140.0625 -120.160156 133.628906 -102.671875 120.765625 -86.546875 C 107.910156 -70.429688 91.53125 -54.707031 71.625 -39.375 L 142.96875 -39.375 L 142.96875 -2.640625 L 10.3125 -2.640625 Z M 10.3125 -36.203125 "/></g></g></g><g fill="#9f3a80" fill-opacity="1"><g transform="translate(683.035496, 390.206673)"><g><path d="M 12.953125 -34.359375 L 12.953125 -70.828125 L 96.46875 -190.28125 L 146.9375 -190.28125 L 146.9375 -73.46875 L 168.609375 -73.46875 L 168.609375 -34.359375 L 146.9375 -34.359375 L 146.9375 0 L 101.75 0 L 101.75 -34.359375 Z M 104.921875 -140.59375 L 60.515625 -73.46875 L 104.921875 -73.46875 Z M 104.921875 -140.59375 "/></g></g></g><path stroke-linecap="butt" transform="matrix(3.752604, 0, 0, 3.752604, 176.064294, 677.759036)" fill="none" stroke-linejoin="miter" d="M -0.000478148 2.000368 L 186.021387 2.000368 " stroke="#04abcb" stroke-width="4" stroke-opacity="1" stroke-miterlimit="4"/><g fill="#9f3a80" fill-opacity="1"><g transform="translate(191.320355, 792.451455)"><g><path d="M 5.46875 -75.25 L 28.828125 -75.25 C 35.878906 -75.25 41.503906 -73.742188 45.703125 -70.734375 C 49.898438 -67.722656 52 -62.84375 52 -56.09375 C 52 -48.550781 48.863281 -43.171875 42.59375 -39.953125 C 53.300781 -38.066406 58.65625 -31.742188 58.65625 -20.984375 C 58.65625 -14.660156 56.460938 -9.582031 52.078125 -5.75 C 47.703125 -1.914062 41.6875 0 34.03125 0 L 5.46875 0 Z M 22.625 -45.796875 L 23.984375 -45.796875 C 27.816406 -45.796875 30.675781 -46.460938 32.5625 -47.796875 C 34.445312 -49.140625 35.390625 -51.328125 35.390625 -54.359375 C 35.390625 -59.472656 31.585938 -62.03125 23.984375 -62.03125 L 22.625 -62.03125 Z M 22.625 -13.234375 L 28 -13.234375 C 36.394531 -13.234375 40.59375 -16.03125 40.59375 -21.625 C 40.59375 -24.96875 39.539062 -27.367188 37.4375 -28.828125 C 35.34375 -30.285156 32.195312 -31.015625 28 -31.015625 L 22.625 -31.015625 Z M 22.625 -13.234375 "/></g></g></g><g fill="#9f3a80" fill-opacity="1"><g transform="translate(250.631458, 792.451455)"><g><path d="M -2.734375 -75.25 L 17.875 -75.25 L 33.5625 -51.171875 L 49.265625 -75.25 L 69.875 -75.25 L 42.140625 -33.75 L 42.140625 0 L 25 0 L 25 -33.75 Z M -2.734375 -75.25 "/></g></g></g><g fill="#9f3a80" fill-opacity="1"><g transform="translate(316.325096, 792.451455)"><g><path d="M 5.46875 -33.390625 L 34.84375 -33.390625 L 34.84375 -19.421875 L 5.46875 -19.421875 Z M 5.46875 -33.390625 "/></g></g></g><g fill="#9f3a80" fill-opacity="1"><g transform="translate(355.212124, 792.451455)"><g><path d="M 48.53125 -75.25 L 48.53125 -60.203125 L 22.625 -60.203125 L 22.625 -45.25 L 47.4375 -45.25 L 47.4375 -30.1875 L 22.625 -30.1875 L 22.625 -15.046875 L 48.53125 -15.046875 L 48.53125 0 L 5.46875 0 L 5.46875 -75.25 Z M 48.53125 -75.25 "/></g></g></g><g fill="#9f3a80" fill-opacity="1"><g transform="translate(406.681873, 792.451455)"><g><path d="M 22.625 -75.25 L 22.625 -15.046875 L 48.53125 -15.046875 L 48.53125 0 L 5.46875 0 L 5.46875 -75.25 Z M 22.625 -75.25 "/></g></g></g><g fill="#9f3a80" fill-opacity="1"><g transform="translate(456.783941, 792.451455)"><g><path d="M 48.53125 -75.25 L 48.53125 -60.203125 L 22.625 -60.203125 L 22.625 -45.25 L 47.4375 -45.25 L 47.4375 -30.1875 L 22.625 -30.1875 L 22.625 -15.046875 L 48.53125 -15.046875 L 48.53125 0 L 5.46875 0 L 5.46875 -75.25 Z M 48.53125 -75.25 "/></g></g></g><g fill="#9f3a80" fill-opacity="1"><g transform="translate(508.25369, 792.451455)"><g><path d="M 45.515625 -15.5 C 48.128906 -15.5 50.664062 -15.894531 53.125 -16.6875 C 55.59375 -17.476562 57.40625 -18.238281 58.5625 -18.96875 L 60.296875 -20.15625 L 67.59375 -5.5625 C 67.351562 -5.382812 67.019531 -5.140625 66.59375 -4.828125 C 66.164062 -4.523438 65.175781 -3.960938 63.625 -3.140625 C 62.070312 -2.328125 60.414062 -1.613281 58.65625 -1 C 56.894531 -0.394531 54.582031 0.148438 51.71875 0.640625 C 48.863281 1.128906 45.914062 1.375 42.875 1.375 C 35.875 1.375 29.242188 -0.34375 22.984375 -3.78125 C 16.722656 -7.21875 11.675781 -11.945312 7.84375 -17.96875 C 4.007812 -23.988281 2.09375 -30.492188 2.09375 -37.484375 C 2.09375 -42.773438 3.21875 -47.851562 5.46875 -52.71875 C 7.71875 -57.582031 10.710938 -61.75 14.453125 -65.21875 C 18.191406 -68.6875 22.554688 -71.453125 27.546875 -73.515625 C 32.535156 -75.585938 37.644531 -76.625 42.875 -76.625 C 47.738281 -76.625 52.222656 -76.046875 56.328125 -74.890625 C 60.429688 -73.734375 63.332031 -72.578125 65.03125 -71.421875 L 67.59375 -69.6875 L 60.296875 -55.09375 C 59.867188 -55.457031 59.226562 -55.894531 58.375 -56.40625 C 57.53125 -56.925781 55.828125 -57.613281 53.265625 -58.46875 C 50.710938 -59.320312 48.128906 -59.75 45.515625 -59.75 C 41.378906 -59.75 37.671875 -59.078125 34.390625 -57.734375 C 31.109375 -56.398438 28.507812 -54.640625 26.59375 -52.453125 C 24.675781 -50.265625 23.210938 -47.90625 22.203125 -45.375 C 21.203125 -42.851562 20.703125 -40.285156 20.703125 -37.671875 C 20.703125 -31.953125 22.84375 -26.828125 27.125 -22.296875 C 31.414062 -17.765625 37.546875 -15.5 45.515625 -15.5 Z M 45.515625 -15.5 "/></g></g></g><g fill="#9f3a80" fill-opacity="1"><g transform="translate(575.497356, 792.451455)"><g><path d="M 0.734375 -60.203125 L 0.734375 -75.25 L 53.640625 -75.25 L 53.640625 -60.203125 L 35.75 -60.203125 L 35.75 0 L 18.609375 0 L 18.609375 -60.203125 Z M 0.734375 -60.203125 "/></g></g></g><g fill="#9f3a80" fill-opacity="1"><g transform="translate(628.425966, 792.451455)"><g><path d="M 22.625 -75.25 L 22.625 0 L 5.46875 0 L 5.46875 -75.25 Z M 22.625 -75.25 "/></g></g></g><g fill="#9f3a80" fill-opacity="1"><g transform="translate(655.095059, 792.451455)"><g><path d="M 2.09375 -37.671875 C 2.09375 -48.554688 5.800781 -57.769531 13.21875 -65.3125 C 20.644531 -72.851562 29.585938 -76.625 40.046875 -76.625 C 50.566406 -76.625 59.503906 -72.867188 66.859375 -65.359375 C 74.222656 -57.847656 77.90625 -48.617188 77.90625 -37.671875 C 77.90625 -26.660156 74.285156 -17.398438 67.046875 -9.890625 C 59.804688 -2.378906 50.804688 1.375 40.046875 1.375 C 29.035156 1.375 19.957031 -2.347656 12.8125 -9.796875 C 5.664062 -17.253906 2.09375 -26.546875 2.09375 -37.671875 Z M 20.609375 -37.671875 C 20.609375 -33.722656 21.21875 -30.117188 22.4375 -26.859375 C 23.65625 -23.609375 25.785156 -20.859375 28.828125 -18.609375 C 31.867188 -16.359375 35.609375 -15.234375 40.046875 -15.234375 C 46.429688 -15.234375 51.25 -17.421875 54.5 -21.796875 C 57.757812 -26.179688 59.390625 -31.472656 59.390625 -37.671875 C 59.390625 -43.816406 57.726562 -49.09375 54.40625 -53.5 C 51.09375 -57.90625 46.304688 -60.109375 40.046875 -60.109375 C 33.835938 -60.109375 29.046875 -57.90625 25.671875 -53.5 C 22.296875 -49.09375 20.609375 -43.816406 20.609375 -37.671875 Z M 20.609375 -37.671875 "/></g></g></g><g fill="#9f3a80" fill-opacity="1"><g transform="translate(733.644915, 792.451455)"><g><path d="M 22.625 -46.703125 L 22.625 0 L 5.46875 0 L 5.46875 -75.25 L 22.625 -75.25 L 52.546875 -28.546875 L 52.71875 -28.546875 L 52.71875 -75.25 L 69.875 -75.25 L 69.875 0 L 52.71875 0 L 22.796875 -46.703125 Z M 22.625 -46.703125 "/></g></g></g><g fill="#9f3a80" fill-opacity="1"><g transform="translate(807.544641, 792.451455)"><g><path d="M 33.203125 -76.625 C 37.273438 -76.625 41.253906 -76.03125 45.140625 -74.84375 C 49.035156 -73.65625 51.925781 -72.484375 53.8125 -71.328125 L 56.5625 -69.515625 L 49.625 -55.828125 C 49.070312 -56.191406 48.3125 -56.660156 47.34375 -57.234375 C 46.375 -57.816406 44.550781 -58.59375 41.875 -59.5625 C 39.195312 -60.539062 36.703125 -61.03125 34.390625 -61.03125 C 31.535156 -61.03125 29.332031 -60.421875 27.78125 -59.203125 C 26.226562 -57.984375 25.453125 -56.34375 25.453125 -54.28125 C 25.453125 -53.238281 25.816406 -52.273438 26.546875 -51.390625 C 27.273438 -50.515625 28.519531 -49.570312 30.28125 -48.5625 C 32.050781 -47.5625 33.601562 -46.757812 34.9375 -46.15625 C 36.269531 -45.550781 38.335938 -44.640625 41.140625 -43.421875 C 46.003906 -41.347656 50.15625 -38.53125 53.59375 -34.96875 C 57.03125 -31.414062 58.75 -27.390625 58.75 -22.890625 C 58.75 -18.578125 57.972656 -14.804688 56.421875 -11.578125 C 54.867188 -8.359375 52.738281 -5.835938 50.03125 -4.015625 C 47.320312 -2.191406 44.328125 -0.835938 41.046875 0.046875 C 37.765625 0.929688 34.207031 1.375 30.375 1.375 C 27.09375 1.375 23.867188 1.035156 20.703125 0.359375 C 17.546875 -0.304688 14.898438 -1.140625 12.765625 -2.140625 C 10.640625 -3.148438 8.722656 -4.140625 7.015625 -5.109375 C 5.316406 -6.078125 4.070312 -6.898438 3.28125 -7.578125 L 2.09375 -8.578125 L 10.671875 -22.984375 C 11.398438 -22.378906 12.398438 -21.601562 13.671875 -20.65625 C 14.953125 -19.71875 17.21875 -18.457031 20.46875 -16.875 C 23.726562 -15.289062 26.601562 -14.5 29.09375 -14.5 C 36.332031 -14.5 39.953125 -16.960938 39.953125 -21.890625 C 39.953125 -22.921875 39.691406 -23.878906 39.171875 -24.765625 C 38.660156 -25.648438 37.75 -26.53125 36.4375 -27.40625 C 35.132812 -28.289062 33.976562 -28.988281 32.96875 -29.5 C 31.96875 -30.019531 30.328125 -30.8125 28.046875 -31.875 C 25.765625 -32.945312 24.078125 -33.753906 22.984375 -34.296875 C 18.421875 -36.546875 14.894531 -39.359375 12.40625 -42.734375 C 9.914062 -46.109375 8.671875 -49.742188 8.671875 -53.640625 C 8.671875 -60.390625 11.160156 -65.90625 16.140625 -70.1875 C 21.128906 -74.476562 26.816406 -76.625 33.203125 -76.625 Z M 33.203125 -76.625 "/></g></g></g><g fill="#9f3a80" fill-opacity="1"><g transform="translate(193.800306, 535.030175)"><g><path d="M 18.609375 -105.640625 L 40.59375 -124.6875 L 50.4375 -112.234375 L 24.671875 -97.296875 Z M 57.578125 -89.296875 L 57.578125 -71.4375 L 26.84375 -71.4375 L 26.84375 -53.6875 L 56.28125 -53.6875 L 56.28125 -35.828125 L 26.84375 -35.828125 L 26.84375 -17.859375 L 57.578125 -17.859375 L 57.578125 0 L 6.5 0 L 6.5 -89.296875 Z M 57.578125 -89.296875 "/></g></g></g><g fill="#9f3a80" fill-opacity="1"><g transform="translate(263.052815, 535.030175)"><g><path d="M 26.84375 -89.296875 L 26.84375 -17.859375 L 57.578125 -17.859375 L 57.578125 0 L 6.5 0 L 6.5 -89.296875 Z M 26.84375 -89.296875 "/></g></g></g><g fill="#9f3a80" fill-opacity="1"><g transform="translate(330.682277, 535.030175)"><g><path d="M 57.578125 -89.296875 L 57.578125 -71.4375 L 26.84375 -71.4375 L 26.84375 -53.6875 L 56.28125 -53.6875 L 56.28125 -35.828125 L 26.84375 -35.828125 L 26.84375 -17.859375 L 57.578125 -17.859375 L 57.578125 0 L 6.5 0 L 6.5 -89.296875 Z M 57.578125 -89.296875 "/></g></g></g><g fill="#9f3a80" fill-opacity="1"><g transform="translate(399.934794, 535.030175)"><g><path d="M 54.015625 -18.40625 C 57.109375 -18.40625 60.117188 -18.875 63.046875 -19.8125 C 65.972656 -20.75 68.117188 -21.648438 69.484375 -22.515625 L 71.546875 -23.921875 L 80.203125 -6.609375 C 79.910156 -6.390625 79.507812 -6.097656 79 -5.734375 C 78.5 -5.367188 77.328125 -4.695312 75.484375 -3.71875 C 73.648438 -2.75 71.6875 -1.90625 69.59375 -1.1875 C 67.5 -0.46875 64.753906 0.175781 61.359375 0.75 C 57.972656 1.332031 54.476562 1.625 50.875 1.625 C 42.570312 1.625 34.703125 -0.410156 27.265625 -4.484375 C 19.835938 -8.566406 13.847656 -14.175781 9.296875 -21.3125 C 4.753906 -28.457031 2.484375 -36.179688 2.484375 -44.484375 C 2.484375 -50.765625 3.816406 -56.789062 6.484375 -62.5625 C 9.160156 -68.332031 12.71875 -73.273438 17.15625 -77.390625 C 21.59375 -81.503906 26.769531 -84.785156 32.6875 -87.234375 C 38.601562 -89.691406 44.664062 -90.921875 50.875 -90.921875 C 56.644531 -90.921875 61.960938 -90.234375 66.828125 -88.859375 C 71.703125 -87.484375 75.148438 -86.113281 77.171875 -84.75 L 80.203125 -82.6875 L 71.546875 -65.375 C 71.035156 -65.800781 70.273438 -66.320312 69.265625 -66.9375 C 68.253906 -67.550781 66.234375 -68.363281 63.203125 -69.375 C 60.171875 -70.382812 57.109375 -70.890625 54.015625 -70.890625 C 49.109375 -70.890625 44.703125 -70.09375 40.796875 -68.5 C 36.898438 -66.914062 33.816406 -64.828125 31.546875 -62.234375 C 29.273438 -59.640625 27.539062 -56.84375 26.34375 -53.84375 C 25.15625 -50.851562 24.5625 -47.804688 24.5625 -44.703125 C 24.5625 -37.921875 27.101562 -31.84375 32.1875 -26.46875 C 37.28125 -21.09375 44.554688 -18.40625 54.015625 -18.40625 Z M 54.015625 -18.40625 "/></g></g></g><g fill="#9f3a80" fill-opacity="1"><g transform="translate(487.906533, 535.030175)"><g><path d="M 0.859375 -71.4375 L 0.859375 -89.296875 L 63.640625 -89.296875 L 63.640625 -71.4375 L 42.421875 -71.4375 L 42.421875 0 L 22.078125 0 L 22.078125 -71.4375 Z M 0.859375 -71.4375 "/></g></g></g><g fill="#9f3a80" fill-opacity="1"><g transform="translate(558.890307, 535.030175)"><g><path d="M 26.84375 -89.296875 L 26.84375 0 L 6.5 0 L 6.5 -89.296875 Z M 26.84375 -89.296875 "/></g></g></g><g fill="#9f3a80" fill-opacity="1"><g transform="translate(598.711438, 535.030175)"><g><path d="M 2.484375 -44.703125 C 2.484375 -57.617188 6.882812 -68.550781 15.6875 -77.5 C 24.5 -86.445312 35.109375 -90.921875 47.515625 -90.921875 C 59.992188 -90.921875 70.597656 -86.460938 79.328125 -77.546875 C 88.066406 -68.640625 92.4375 -57.691406 92.4375 -44.703125 C 92.4375 -31.640625 88.140625 -20.648438 79.546875 -11.734375 C 70.960938 -2.828125 60.285156 1.625 47.515625 1.625 C 34.453125 1.625 23.679688 -2.789062 15.203125 -11.625 C 6.722656 -20.46875 2.484375 -31.492188 2.484375 -44.703125 Z M 24.46875 -44.703125 C 24.46875 -40.015625 25.1875 -35.738281 26.625 -31.875 C 28.070312 -28.007812 30.597656 -24.742188 34.203125 -22.078125 C 37.804688 -19.410156 42.242188 -18.078125 47.515625 -18.078125 C 55.085938 -18.078125 60.800781 -20.671875 64.65625 -25.859375 C 68.519531 -31.054688 70.453125 -37.335938 70.453125 -44.703125 C 70.453125 -51.984375 68.484375 -58.238281 64.546875 -63.46875 C 60.617188 -68.707031 54.941406 -71.328125 47.515625 -71.328125 C 40.148438 -71.328125 34.46875 -68.707031 30.46875 -63.46875 C 26.46875 -58.238281 24.46875 -51.984375 24.46875 -44.703125 Z M 24.46875 -44.703125 "/></g></g></g><g fill="#9f3a80" fill-opacity="1"><g transform="translate(700.100431, 535.030175)"><g><path d="M 26.84375 -55.421875 L 26.84375 0 L 6.5 0 L 6.5 -89.296875 L 26.84375 -89.296875 L 62.34375 -33.875 L 62.5625 -33.875 L 62.5625 -89.296875 L 82.90625 -89.296875 L 82.90625 0 L 62.5625 0 L 27.0625 -55.421875 Z M 26.84375 -55.421875 "/></g></g></g><g fill="#9f3a80" fill-opacity="1"><g transform="translate(795.97105, 535.030175)"><g><path d="M 39.390625 -90.921875 C 44.234375 -90.921875 48.960938 -90.21875 53.578125 -88.8125 C 58.191406 -87.40625 61.617188 -86.015625 63.859375 -84.640625 L 67.109375 -82.46875 L 58.875 -66.234375 C 58.226562 -66.671875 57.328125 -67.234375 56.171875 -67.921875 C 55.015625 -68.609375 52.847656 -69.523438 49.671875 -70.671875 C 46.503906 -71.828125 43.546875 -72.40625 40.796875 -72.40625 C 37.410156 -72.40625 34.796875 -71.679688 32.953125 -70.234375 C 31.117188 -68.796875 30.203125 -66.851562 30.203125 -64.40625 C 30.203125 -63.175781 30.632812 -62.035156 31.5 -60.984375 C 32.363281 -59.941406 33.84375 -58.820312 35.9375 -57.625 C 38.03125 -56.4375 39.867188 -55.484375 41.453125 -54.765625 C 43.035156 -54.046875 45.488281 -52.960938 48.8125 -51.515625 C 54.582031 -49.066406 59.503906 -45.726562 63.578125 -41.5 C 67.660156 -37.28125 69.703125 -32.503906 69.703125 -27.171875 C 69.703125 -22.046875 68.78125 -17.570312 66.9375 -13.75 C 65.101562 -9.925781 62.578125 -6.929688 59.359375 -4.765625 C 56.148438 -2.597656 52.597656 -0.992188 48.703125 0.046875 C 44.804688 1.097656 40.585938 1.625 36.046875 1.625 C 32.148438 1.625 28.320312 1.226562 24.5625 0.4375 C 20.8125 -0.351562 17.671875 -1.34375 15.140625 -2.53125 C 12.617188 -3.726562 10.347656 -4.90625 8.328125 -6.0625 C 6.304688 -7.21875 4.828125 -8.191406 3.890625 -8.984375 L 2.484375 -10.171875 L 12.65625 -27.28125 C 13.53125 -26.550781 14.722656 -25.628906 16.234375 -24.515625 C 17.753906 -23.398438 20.441406 -21.898438 24.296875 -20.015625 C 28.160156 -18.140625 31.570312 -17.203125 34.53125 -17.203125 C 43.113281 -17.203125 47.40625 -20.125 47.40625 -25.96875 C 47.40625 -27.195312 47.097656 -28.332031 46.484375 -29.375 C 45.867188 -30.425781 44.785156 -31.472656 43.234375 -32.515625 C 41.679688 -33.566406 40.3125 -34.398438 39.125 -35.015625 C 37.9375 -35.628906 35.988281 -36.566406 33.28125 -37.828125 C 30.570312 -39.085938 28.570312 -40.046875 27.28125 -40.703125 C 21.863281 -43.367188 17.675781 -46.703125 14.71875 -50.703125 C 11.757812 -54.710938 10.28125 -59.023438 10.28125 -63.640625 C 10.28125 -71.648438 13.238281 -78.195312 19.15625 -83.28125 C 25.070312 -88.375 31.816406 -90.921875 39.390625 -90.921875 Z M 39.390625 -90.921875 "/></g></g></g></svg>